<svg width="149px" height="68px" viewBox="127 22 149 68" version="1.1" xmlns="http://www.w3.org/2000/svg" xmlns:xlink="http://www.w3.org/1999/xlink">
    <!-- Generator: Sketch 39.1 (31720) - http://www.bohemiancoding.com/sketch -->
    <desc>Created with Sketch.</desc>
    <defs></defs>
    <g id="Asset-1" stroke="none" stroke-width="1" fill="none" fill-rule="evenodd" transform="translate(128.000000, 22.000000)">
        <g id="Layer_2">
            <g>
                <g id="Layer_4">
                    <path d="M126.607786,39.9045267 L135.162977,39.9045267 C140.761353,39.921061 145.711381,36.3063616 147.35246,31.0033014 C148.993539,25.7002412 146.939161,19.957801 142.293537,16.8624979 C137.647914,13.7671949 131.505186,14.0480371 127.167023,17.5540741 C126.316884,18.2379526 126.187269,19.4751575 126.877519,20.3174486 C127.56777,21.1597396 128.816502,21.2881584 129.666641,20.6042798 C131.216556,19.3469647 133.159825,18.6633042 135.162977,18.6706173 C139.986151,18.6706173 143.896107,22.5444781 143.896107,27.3231276 C143.896107,32.1017771 139.986151,35.9756379 135.162977,35.9756379 L126.607786,35.9756379 L126.607786,39.9045267 Z" id="Shape" fill="#9476C4"></path>
                    <path d="M0.282442748,39.7366255 C0.0992387491,39.5629741 -0.0030391518,39.3217998 6.33554759e-14,39.0706173 L6.33554759e-14,16.4515226 C-0.0030391518,16.2003401 0.0992387491,15.9591659 0.282442748,15.7855144 C0.457908179,15.604284 0.701200031,15.5030043 0.954656489,15.505679 L11.3824427,15.505679 C13.242799,15.505679 14.7689313,15.8675995 15.9608397,16.5914403 C17.0583745,17.2183769 17.9536175,18.1412616 18.5423664,19.2526749 C19.0527217,20.2267697 19.3246013,21.306166 19.3360305,22.4036214 C19.3768293,23.4716854 19.093486,24.5273383 18.5225954,25.4342387 C18.1010171,26.1123613 17.5480958,26.7010744 16.8957252,27.1664198 C17.7568322,27.7385271 18.4761791,28.496196 18.9999237,29.382716 C19.5727657,30.378678 19.8599089,31.5108419 19.8303053,32.6567901 C19.826549,33.8891256 19.5150792,35.1013923 18.9236641,36.1855144 C18.3155016,37.3272977 17.405633,38.2838997 16.2912977,38.9530864 C15.055485,39.6849818 13.6351535,40.0537704 12.1958779,40.0164609 L0.954656489,40.0164609 C0.701133608,40.019472 0.457712204,39.9181383 0.282442748,39.7366255 L0.282442748,39.7366255 Z M4.77045802,19.8683128 L4.77045802,25.2775309 L11.0152672,25.2775309 C12.2184733,25.2775309 13.1081679,25.0555281 13.6843511,24.6115226 C14.2605344,24.1675171 14.5495674,23.4903155 14.5514504,22.5799177 C14.5514504,21.6695199 14.2624173,20.9923182 13.6843511,20.5483128 C13.106285,20.1043073 12.2165903,19.8832373 11.0152672,19.8851029 L4.77045802,19.8683128 Z M11.2977099,35.6426337 C12.5461069,35.6426337 13.4828753,35.3739918 14.1080153,34.8367078 C14.712426,34.2675236 15.0517881,33.4756609 15.0453657,32.6495078 C15.0389432,31.8233547 14.6873103,31.036765 14.0741221,30.4768724 C13.4339186,29.9339918 12.5084478,29.6625514 11.2977099,29.6625514 L4.77045802,29.6625514 L4.77045802,35.6510288 L11.2977099,35.6426337 Z" id="Shape" fill="#353C4C"></path>
                    <path d="M22.7903053,22.0594239 C22.9659652,21.878474 23.2091288,21.7772476 23.4625191,21.7795885 L26.1541985,21.7795885 C26.6810972,21.7826058 27.10835,22.2034243 27.1145038,22.7254321 L27.1145038,31.6353909 C27.1145038,33.1091907 27.4270738,34.2490535 28.0522137,35.0549794 C28.6773537,35.8609053 29.6508397,36.2638683 30.9726718,36.2638683 C32.2003562,36.2638683 33.1503053,35.8487791 33.8225191,35.0186008 C34.4947328,34.1884225 34.8317812,33.0597531 34.8336641,31.6325926 L34.8336641,22.7254321 C34.838266,22.2034118 35.2642609,21.7813495 35.791145,21.7767901 L38.4828244,21.7767901 C39.0086053,21.7828635 39.4329042,22.2044893 39.4374809,22.7254321 L39.4374809,39.0734156 C39.4329042,39.5943585 39.0086053,40.0159842 38.4828244,40.0220576 L35.7854962,40.0220576 C35.258612,40.0174982 34.8326171,39.5954359 34.8280153,39.0734156 L34.8280153,38.2674897 C33.5609999,39.6268264 31.7724779,40.3913431 29.9050382,40.3718519 C27.2368957,40.3718519 25.3369975,39.6172291 24.2053435,38.1079835 C23.0736896,36.598738 22.5088041,34.6165706 22.510687,32.1614815 L22.510687,22.7254321 C22.5075864,22.4747973 22.6087085,22.2339399 22.7903053,22.0594239 L22.7903053,22.0594239 Z" id="Shape" fill="#353C4C"></path>
                    <path d="M47.340229,15.505679 C47.5234531,15.681631 47.6255871,15.9244899 47.6226718,16.177284 L47.6226718,18.9336626 C47.6165689,19.458149 47.1889154,19.8818547 46.659542,19.8879012 L43.950916,19.8879012 C43.4215427,19.8818547 42.9938892,19.458149 42.9877863,18.9336626 L42.9877863,16.177284 C42.9938892,15.6527975 43.4215427,15.2290918 43.950916,15.2230453 L46.659542,15.2230453 C46.9161558,15.2197781 47.16264,15.3221228 47.340229,15.505679 L47.340229,15.505679 Z M47.340229,39.7450206 C47.1628301,39.9268331 46.9175809,40.0280769 46.6623664,40.024856 L43.950916,40.024856 C43.4215427,40.0188094 42.9938892,39.5951038 42.9877863,39.0706173 L42.9877863,22.7282305 C42.9938892,22.203744 43.4215427,21.7800383 43.950916,21.7739918 L46.6623664,21.7739918 C47.1917398,21.7800383 47.6193933,22.203744 47.6254962,22.7282305 L47.6254962,39.0734156 C47.6256815,39.3237804 47.5226331,39.5633548 47.340229,39.7366255 L47.340229,39.7450206 Z" id="Shape" fill="#353C4C"></path>
                    <path d="M55.5367176,39.7366255 C55.3593187,39.918438 55.1140694,40.0196818 54.858855,40.0164609 L52.1474046,40.0164609 C51.6180312,40.0104144 51.1903777,39.5867087 51.1842748,39.0622222 L51.1842748,16.177284 C51.1903777,15.6527975 51.6180312,15.2290918 52.1474046,15.2230453 L54.858855,15.2230453 C55.3882283,15.2290918 55.8158818,15.6527975 55.8219847,16.177284 L55.8219847,39.0734156 C55.8221701,39.3237804 55.7191217,39.5633548 55.5367176,39.7366255 L55.5367176,39.7366255 Z" id="Shape" fill="#353C4C"></path>
                    <path d="M71.681145,16.0625514 C71.6872475,15.5396103 72.1136368,15.1171573 72.6414504,15.1111111 L75.3444275,15.1111111 C75.8722411,15.1171573 76.2986303,15.5396103 76.3047328,16.0625514 L76.3047328,39.0678189 C76.2986303,39.59076 75.8722411,40.0132131 75.3444275,40.0192593 L72.6414504,40.0192593 C72.1136368,40.0132131 71.6872475,39.59076 71.681145,39.0678189 L71.681145,38.2590947 C71.1002644,38.883696 70.3992619,39.3869933 69.619313,39.7394239 C68.5792697,40.1954714 67.4486114,40.4126278 66.3119084,40.3746502 C64.8705215,40.4028608 63.4534153,40.0043557 62.2419084,39.2301235 C61.0749987,38.4727382 60.1261967,37.4285672 59.4880916,36.1995062 C58.8209836,34.9289036 58.4448783,33.5281845 58.3865649,32.0971193 L58.3526718,30.8630453 L58.3865649,29.6289712 C58.4449705,28.1979199 58.8210706,26.7972204 59.4880916,25.5265844 C60.1264103,24.2976694 61.0751677,23.2535475 62.2419084,22.4959671 C63.4536295,21.7222041 64.8705881,21.3237405 66.3119084,21.3514403 C67.4365639,21.3157751 68.5547662,21.5329501 69.5825954,21.9866667 C70.3697042,22.3452125 71.0816256,22.8474061 71.681145,23.4669959 L71.681145,16.0625514 Z M64.1625191,34.8423045 C64.9552417,35.7116598 66.0275827,36.1463374 67.379542,36.1463374 C68.4600881,36.1821835 69.5140481,35.8101014 70.3282443,35.1053498 C71.1096692,34.4132236 71.5596947,33.4449931 71.6783206,32.2006584 C71.7253944,31.730535 71.7489313,31.2846639 71.7489313,30.8630453 C71.7489313,30.4414266 71.7253944,29.9946228 71.6783206,29.5226337 C71.608656,28.4273613 71.1185092,27.4000454 70.3084733,26.6515226 C69.507329,25.9326826 68.4571663,25.5477695 67.3767176,25.5769547 C66.2833285,25.5380833 65.2166315,25.9167461 64.3969466,26.6347325 C63.6136387,27.3399177 63.151374,28.4200823 63.0101527,29.8752263 C62.9932061,30.1065569 62.9847328,30.4358299 62.9847328,30.8630453 C62.9847328,32.6465295 63.3773282,33.9729492 64.1625191,34.8423045 L64.1625191,34.8423045 Z" id="Shape" fill="#353C4C"></path>
                    <path d="M123.952824,39.7366255 C123.777359,39.9178559 123.534067,40.0191357 123.280611,40.0164609 L120.603053,40.0164609 C120.078359,40.0104155 119.654499,39.5904676 119.648397,39.0706173 L119.648397,30.188642 C119.648397,28.7409602 119.306641,27.6085597 118.62313,26.7914403 C117.939618,25.974321 116.937888,25.5657613 115.617939,25.5657613 C114.496933,25.5192427 113.415984,25.9830894 112.683359,26.8250206 C111.952774,27.6645267 111.587481,28.7838683 111.587481,30.1830453 L111.587481,39.076214 C111.581379,39.5960643 111.157518,40.0160122 110.632824,40.0220576 L107.946794,40.0220576 C107.4221,40.0160122 106.998239,39.5960643 106.992137,39.076214 L106.992137,22.7646091 C107.002735,22.249111 107.423614,21.8345917 107.943969,21.8271605 L110.63,21.8271605 C111.154694,21.8332059 111.578555,22.2531538 111.584656,22.7730041 L111.584656,23.57893 C112.914084,22.2134637 114.7539,21.4529374 116.668626,21.4773663 C119.33112,21.4773663 121.257379,22.2357202 122.447405,23.752428 C123.63743,25.2691358 124.233384,27.239177 124.235267,29.6625514 L124.235267,39.0818107 C124.234867,39.3290451 124.132892,39.5654633 123.952824,39.7366255 L123.952824,39.7366255 Z" id="Shape" fill="#353C4C"></path>
                    <path d="M78.6603053,27.6169547 C78.6603053,20.6574486 83.9815267,14.8620576 91.6526718,14.8620576 C99.3238168,14.8620576 104.645038,20.6574486 104.645038,27.6169547 C104.645038,34.5764609 99.3238168,40.3718519 91.6526718,40.3718519 C83.9815267,40.3718519 78.6603053,34.5764609 78.6603053,27.6169547 L78.6603053,27.6169547 Z M99.9677863,27.6169547 C99.9677863,22.9353086 96.5163359,19.1967078 91.6498473,19.1967078 C86.7833588,19.1967078 83.3714504,22.9465021 83.3714504,27.6169547 C83.3714504,32.2874074 86.7861832,36.04 91.6498473,36.04 C96.5135115,36.04 99.9649618,32.2986008 99.9649618,27.6169547 L99.9677863,27.6169547 Z" id="Shape" fill="#353C4C"></path>
                    <path d="M82.5467176,48.05893 L82.5467176,66.8526749 C82.5596297,67.0874946 82.4725396,67.3169141 82.3066412,67.4851029 C82.1347221,67.6478783 81.9030415,67.7338301 81.6654962,67.722963 L80.9424427,67.722963 C80.6993837,67.7313201 80.4625063,67.6460692 80.2815267,67.4851029 C80.1055788,67.3221904 80.0105975,67.0910206 80.0216794,66.8526749 L80.0216794,43.5172016 C80.0216794,43.0535552 80.4010412,42.6776955 80.8690076,42.6776955 L81.4141221,42.6776955 C81.6909105,42.6796971 81.9492633,42.8155168 82.1061069,43.0414815 L91.6639695,56.9688889 L101.058015,43.0470782 C101.214162,42.8181781 101.473984,42.6800486 101.752824,42.6776955 L102.458931,42.6776955 C102.926898,42.6776955 103.30626,43.0535552 103.30626,43.5172016 L103.30626,66.8526749 C103.316957,67.090955 103.222039,67.3219715 103.046412,67.4851029 C102.865279,67.6458152 102.628508,67.7310277 102.385496,67.722963 L101.662443,67.722963 C101.424897,67.7338301 101.193217,67.6478783 101.021298,67.4851029 C100.855399,67.3169141 100.768309,67.0874946 100.781221,66.8526749 L100.781221,48.05893 L93.2061069,59.0788477 C92.8544133,59.5921094 92.2689315,59.8994252 91.6427863,59.8994252 C91.016641,59.8994252 90.4311592,59.5921094 90.0794656,59.0788477 L82.5467176,48.05893 Z" id="Shape" fill="#353C4C"></path>
                    <path d="M124.167481,65.5878189 C124.336366,65.7700211 124.423053,66.0125229 124.407557,66.2594239 L124.407557,66.8526749 C124.417874,67.0908897 124.323018,67.3217547 124.14771,67.4851029 C123.967908,67.6461537 123.731854,67.7314727 123.489618,67.722963 L107.864885,67.722963 C107.628146,67.7340494 107.397254,67.6480112 107.226565,67.4851029 C107.115304,67.3749116 107.032891,67.2394644 106.986489,67.090535 L106.986489,43.8334156 C106.986489,43.3325103 107.065573,43.117037 107.226565,42.9435391 C107.391435,42.7698493 107.624451,42.6758688 107.864885,42.6860905 L123.170458,42.6860905 C123.421246,42.6592269 123.670816,42.7463745 123.849184,42.9230953 C124.027551,43.0998162 124.115511,43.3470825 124.088397,43.5955556 L124.088397,44.1888066 C124.098714,44.4270214 124.003858,44.6578864 123.82855,44.8212346 C123.648747,44.9822854 123.412694,45.0676044 123.170458,45.0590947 L109.500229,45.0590947 L109.500229,53.4709465 L122.29771,53.4709465 C122.548498,53.4440828 122.798068,53.5312304 122.976436,53.7079513 C123.154803,53.8846722 123.242763,54.1319385 123.215649,54.3804115 L123.215649,54.9736626 C123.225966,55.2118773 123.13111,55.4427424 122.955802,55.6060905 C122.775843,55.7668847 122.539898,55.8521645 122.29771,55.8439506 L109.503053,55.8439506 L109.503053,65.3583539 L123.495267,65.3583539 C123.741353,65.3422692 123.98362,65.4249688 124.167481,65.5878189 L124.167481,65.5878189 Z" id="Shape" fill="#353C4C"></path>
                    <path d="M114.547481,0 C106.222206,0.0105786585 99.0425628,5.7977026 97.3382443,13.8714403 C98.6659348,14.4168566 99.9036051,15.1563766 101.01,16.0653498 C101.698572,9.37847213 107.252236,4.21495386 114.031517,3.95859671 C120.810797,3.70223957 126.745552,8.43132559 127.946565,15.046749 C129.112987,14.3696409 130.37136,13.8617032 131.683282,13.5384362 C129.848844,5.62361566 122.743959,0.0102785481 114.547481,0 L114.547481,0 Z" id="Shape" fill="#1BAFEA"></path>
                </g>
            </g>
        </g>
    </g>
</svg>
